# AST/ASF file generated using VICON BodyLanguage
# -----------------------------------------------
:version 1.10
:name VICON
:units
  mass 1.0
  length 0.45
  angle deg
:documentation
   .ast/.asf automatically generated from VICON data using
   VICON BodyBuilder and BodyLanguage model FoxedUp or BRILLIANT.MOD
:root
   order TX TY TZ RX RY RZ
   axis XYZ
   position 0 0 0  
   orientation 0 0 0 
:bonedata
  begin
     id 1 
     name lhipjoint
     direction 0.653368 -0.678499 0.335782 
     length 2.51848 
     axis 0 0 0  XYZ
  end
  begin
     id 2 
     name lfemur
     direction 0.34202 -0.939693 0  
     length 6.57749  
     axis 0 0 20  XYZ
    dof rx ry rz
    limits (-160.0 20.0)
           (-70.0 70.0)
           (-60.0 70.0)
  end
  begin
     id 3 
     name ltibia
     direction 0.34202 -0.939693 0   
     length 7.94618   
     axis 0 0 20   XYZ
    dof rx
    limits (-10.0 170.0)
  end
  begin
     id 4 
     name lfoot
     direction 0.0811271 -0.222895 0.971461   
     length 2.31339   
     axis -90 7.62852e-016 20   XYZ
    dof rx rz
    limits (-45.0 90.0)
           (-70.0 20.0)
  end
  begin
     id 5 
     name ltoes
     direction 1.53568e-011 -4.21885e-011 1   
     length 1.15935   
     axis -90 7.62852e-016 20   XYZ
    dof rx
    limits (-90.0 20.0)
  end
  begin
     id 6 
     name rhipjoint
     direction -0.640058 -0.688614 0.340788   
     length 2.48149  
     axis 0 0 0  XYZ 
  end
  begin
     id 7 
     name rfemur
     direction -0.34202 -0.939693 0   
     length 6.57875   
     axis 0 0 -20   XYZ
    dof rx ry rz
    limits (-160.0 20.0)
           (-70.0 70.0)
           (-70.0 60.0)
  end
  begin
     id 8 
     name rtibia
     direction -0.34202 -0.939693 0   
     length 7.977   
     axis 0 0 -20   XYZ
    dof rx
    limits (-10.0 170.0)
 end
 begin
     id 9 
     name rfoot
     direction -0.0979793 -0.269196 0.958089   
     length 2.19857  
     axis -90 -7.62852e-016 -20   XYZ
    dof rx rz
    limits (-45.0 90.0)
           (-20.0 70.0)
  end
  begin
     id 10 
     name rtoes
     direction -1.53556e-011 -4.21868e-011 1   
     length 1.09838   
     axis -90 -7.62852e-016 -20   XYZ
    dof rx
    limits (-90.0 20.0)
  end
  begin
     id 11 
     name lowerback
     direction 0.0149039 0.998517 -0.0523597   
     length 2.10809   
     axis 0 0 0   XYZ
    dof rx ry rz
    limits (-20.0 45.0)
           (-30.0 30.0)
           (-30.0 30.0)
  end
  begin
     id 12 
     name upperback
     direction -0.00882659 0.999418 -0.0329624   
     length 2.1102   
     axis 0 0 0   XYZ
    dof rx ry rz
    limits (-20.0 45.0)
           (-30.0 30.0)
           (-30.0 30.0)
  end
  begin
     id 13 
     name thorax
     direction -0.0165585 0.999826 -0.0085833   
     length 2.11039   
     axis 0 0 0   XYZ
    dof rx ry rz
    limits (-20.0 45.0)
           (-30.0 30.0)
           (-30.0 30.0)
  end
  begin
     id 14 
     name lowerneck
     direction -0.0130877 0.999911 0.00260353   
     length 1.73253   
     axis 0 0 0   XYZ
    dof rx ry rz
    limits (-20.0 45.0)
           (-30.0 30.0)
           (-30.0 30.0)
  end
  begin
     id 15 
     name upperneck
     direction -0.0348454 0.928205 -0.370435   
     length 1.66692   
     axis 0 0 0   XYZ
    dof rx ry rz
    limits (-20.0 45.0)
           (-30.0 30.0)
           (-30.0 30.0)
  end
  begin
     id 16
     name head
     direction -0.00807754 0.992494 -0.122026  
     length 1.72765  
     axis 0 0 0   XYZ
    dof rx ry rz
    limits (-20.0 45.0)
           (-30.0 30.0)
           (-30.0 30.0)
  end
  begin
     id 17 
     name lclavicle
     direction 0.987582 0.144023 0.0627671  
     length 3.49235  
     axis 0 0 0   XYZ
    dof ry rz
    limits (-20.0 10.0)
           (0.0 20.0)
  end
  begin
     id 18 
     name lhumerus
     direction 1 -4.48958e-011 -1.45183e-018   
     length 5.41917   
     axis 180 -30 -90   XYZ
    dof rx ry rz
    limits (-60.0 90.0)
           (-90.0 90.0)
           (-90.0 90.0)
  end
  begin
     id 19
     name lradius
     direction 1 -4.48999e-011 5.75106e-027   
     length 2.44373   
     axis 180 -30 -90   XYZ
    dof rx
    limits (-10.0 170.0)
  end
  begin
     id 20
     name lwrist
     direction 1 -4.48987e-011 1.53461e-026   
     length 1.22186   
     axis -1.09697e-014 90 90   XYZ
    dof ry
    limits (-180.0 0.0)
 end
  begin
     id 21 
     name lhand
     direction 1 -4.48881e-011 3.06923e-026   
     length 0.727502   
     axis -1.95843e-014 90 90   XYZ
    dof rx rz
    limits (-90.0 90.0)
           (-45.0 45.0)
  end
  begin
     id 22 
     name lfingers
     direction 1 -4.48907e-011 6.13845e-026   
     length 0.586531   
     axis -3.91686e-014 90 90   XYZ
    dof rx
    limits (0.0 90.0)
  end
  begin
     id 23
     name lthumb
     direction 0.707107 -6.3487e-011 0.707107   
     length 0.842145   
     axis -90 45 2.85299e-015   XYZ
    dof rx rz
    limits (-45.0 45.0)
           (-45.0 45.0)
  end
  begin
     id 24 
     name rclavicle
     direction -0.980998 0.169556 0.0943023   
     length 3.29272  
     axis 0 0 0   XYZ 
    dof ry rz
    limits (-10.0 20.0)
           (-20.0 0.0)
  end
  begin
     id 25 
     name rhumerus
     direction -1 -1.83355e-005 2.45537e-005  
     length 5.58976   
     axis 180 30 90   XYZ
    dof rx ry rz
    limits (-90.0 60.0)
           (-90.0 90.0)
           (-90.0 90.0)
  end
  begin
     id 26 
     name rradius
     direction -1 -4.48967e-011 5.97228e-027   
     length 2.4806   
     axis 180 30 90   XYZ
    dof rx
    limits (-10.0 170.0)
  end
  begin
     id 27 
     name rwrist
     direction -1 -4.48963e-011 1.53461e-026   
     length 1.2403   
     axis -1.09697e-014 -90 -90   XYZ
    dof ry
    limits (-180.0 0.0)
  end
  begin
     id 28
     name rhand
     direction -1 -4.48881e-011 3.06923e-026   
     length 0.816009   
     axis -1.95843e-014 -90 -90   XYZ
    dof rx rz
    limits (-90.0 90.0)
           (-45.0 45.0)
  end
  begin
     id 29
     name rfingers
     direction -1 -4.49018e-011 6.13845e-026   
     length 0.657887   
     axis -3.91686e-014 -90 -90   XYZ
    dof rx
    limits (0.0 90.0)
  end
  begin
     id 30
     name rthumb
     direction -0.707107 -6.34872e-011 0.707107   
     length 0.944599   
     axis -90 -45 -2.85299e-015   XYZ
    dof rx rz
    limits (-45.0 45.0)
           (-45.0 45.0)
  end
:hierarchy
  begin
    root lhipjoint rhipjoint lowerback
    lhipjoint lfemur
    lfemur ltibia
    ltibia lfoot
    lfoot ltoes
    rhipjoint rfemur
    rfemur rtibia
    rtibia rfoot
    rfoot rtoes
    lowerback upperback
    upperback thorax
    thorax lowerneck lclavicle rclavicle
    lowerneck upperneck
    upperneck head
    lclavicle lhumerus
    lhumerus lradius
    lradius lwrist
    lwrist lhand lthumb
    lhand lfingers
    rclavicle rhumerus
    rhumerus rradius
    rradius rwrist
    rwrist rhand rthumb
    rhand rfingers
  end

#!OML:ASF F:\VICON\USERDATA\INSTALL\rory3\rory3.ASF
:FULLY-SPECIFIED
:DEGREES
1
root 0.494596 16.4574 33.83 -152.745 0.483182 -175.632
lowerback -18.4145 1.31449 3.54749
upperback -10.7228 3.43513 1.40349
thorax -1.17241 2.58337 0.0411422
lowerneck -13.9734 0.68725 -1.69701
upperneck 34.832 -2.10232 1.13042
head 14.2953 -2.11584 0.131776
rclavicle -1.17904e-014 -4.57205e-015
rhumerus -46.501 5.01421 -82.5555
rradius 15.833
rwrist -1.79396
rhand 21.1231 7.49406
rfingers 7.12502
rthumb 45.5799 -15.7734
lclavicle -1.17904e-014 -4.57205e-015
lhumerus -52.6492 5.97358 70.1593
lradius 19.575
lwrist 0.782744
lhand 28.1036 21.4737
lfingers 7.12502
lthumb 51.9942 41.5828
rfemur -44.1057 3.01049 36.6893
rtibia 43.2524
rfoot -43.8026 -29.6937
rtoes 35.935
lfemur -33.4539 28.1306 -25.1894
ltibia 61.474
lfoot 33.2508 40.3751
ltoes 22.2684
2
root 0.492669 16.4537 33.8227 -152.768 0.414198 -175.532
lowerback -18.483 1.34302 3.66956
upperback -10.6852 3.44687 1.43067
thorax -1.09432 2.58474 0.00912442
lowerneck -13.8853 0.688398 -1.74021
upperneck 34.8963 -2.12546 1.14585
head 14.3058 -2.13934 0.140064
rclavicle 4.69877e-014 2.90226e-014
rhumerus -46.5417 5.04483 -82.5591
rradius 15.8558
rwrist -1.67925
rhand 20.948 7.53401
rfingers 7.12502
rthumb 45.4172 -15.7993
lclavicle 4.69877e-014 2.90226e-014
lhumerus -52.5893 6.11367 70.028
lradius 19.5259
lwrist 0.804517
lhand 28.0348 21.6131
lfingers 7.12502
lthumb 51.9318 41.7592
rfemur -43.9685 2.8796 36.8399
rtibia 43.2354
rfoot -44.5375 -29.5114
rtoes 36.8868
lfemur -33.4388 28.2391 -25.1014
ltibia 61.4633
lfoot 33.6705 40.1056
ltoes 21.1412
3
root 0.492756 16.4566 33.8147 -152.799 0.402234 -175.572
lowerback -18.4958 1.39174 3.65286
upperback -10.6849 3.51362 1.37697
thorax -1.08283 2.61727 -0.0256193
lowerneck -13.7474 0.640519 -1.78523
upperneck 34.9138 -2.21602 1.16293
head 14.2851 -2.1899 0.140113
rclavicle 5.46658e-015 -2.38542e-015
rhumerus -46.6246 5.0479 -82.6333
rradius 15.8175
rwrist -1.73538
rhand 20.8939 7.56112
rfingers 7.12502
rthumb 45.3669 -15.7924
lclavicle 5.46658e-015 -2.38542e-015
lhumerus -52.5446 6.15903 69.8528
lradius 19.419
lwrist 0.714023
lhand 28.1366 21.6096
lfingers 7.12502
lthumb 52.0241 41.7009
rfemur -43.9247 2.99264 36.7177
rtibia 43.2223
rfoot -44.8131 -29.7712
rtoes 37.4687
lfemur -33.381 28.2962 -25.1462
ltibia 61.4472
lfoot 32.417 41.1264
ltoes 23.2003
4
root 0.491973 16.4433 33.8118 -152.824 0.338895 -175.588
lowerback -18.4698 1.3897 3.62949
upperback -10.6583 3.50836 1.40734
thorax -1.06988 2.61425 0.0183011
lowerneck -13.7358 0.632164 -1.94173
upperneck 34.9887 -2.21932 1.20437
head 14.3187 -2.21296 0.181938
rclavicle -3.37685e-014 -4.1546e-014
rhumerus -46.585 4.92563 -82.4401
rradius 15.7843
rwrist -1.36711
rhand 21.1124 7.48885
rfingers 7.12502
rthumb 45.5699 -15.7827
lclavicle -3.37685e-014 -4.1546e-014
lhumerus -52.522 6.36298 69.729
lradius 19.3485
lwrist 0.580352
lhand 28.0848 21.5456
lfingers 7.12502
lthumb 51.9771 41.6649
rfemur -43.8676 3.1366 36.6426
rtibia 43.133
rfoot -44.8401 -29.5823
rtoes 37.2942
lfemur -33.4008 28.2993 -25.1557
ltibia 61.5338
lfoot 30.7324 42.2696
ltoes 25.5853
5
root 0.493708 16.4544 33.8042 -152.865 0.225889 -175.549
lowerback -18.3747 1.3653 3.69578
upperback -10.6072 3.45061 1.44398
thorax -1.06384 2.57608 0.00680079
lowerneck -13.9501 0.640502 -2.03625
upperneck 35.1268 -2.20376 1.25541
head 14.4323 -2.21248 0.217735
rclavicle 1.81515e-014 1.37161e-014
rhumerus -46.4616 4.89116 -82.3464
rradius 15.7669
rwrist -1.18532
rhand 21.307 7.57967
rfingers 7.12502
rthumb 45.7506 -15.618
lclavicle 1.81515e-014 1.37161e-014
lhumerus -52.3768 6.67327 69.5232
lradius 19.2361
lwrist 0.46802
lhand 28.0845 21.7383
lfingers 7.12502
lthumb 51.9768 41.8577
rfemur -43.8069 3.06647 36.7481
rtibia 43.2059
rfoot -44.5575 -29.056
rtoes 37.1052
lfemur -33.3386 28.1893 -25.0514
ltibia 61.5052
lfoot 30.228 42.4334
ltoes 26.0492
6
root 0.491946 16.444 33.802 -152.828 0.231267 -175.688
lowerback -18.3226 1.35613 3.57169
upperback -10.6578 3.47102 1.39697
thorax -1.14592 2.59288 0.0248899
lowerneck -13.9703 0.631692 -1.99612
upperneck 35.1592 -2.21183 1.19861
head 14.451 -2.21926 0.18532
rclavicle 3.14452e-014 2.32578e-014
rhumerus -46.5278 4.95189 -82.3752
rradius 15.9229
rwrist -1.44074
rhand 21.7414 7.09242
rfingers 7.12502
rthumb 46.1538 -15.9378
lclavicle 3.14452e-014 2.32578e-014
lhumerus -52.4326 6.55617 69.5914
lradius 19.3215
lwrist 0.642408
lhand 28.0154 21.8781
lfingers 7.12502
lthumb 51.9142 42.0346
rfemur -43.8571 3.22868 36.5119
rtibia 43.157
rfoot -44.8113 -29.4802
rtoes 36.7938
lfemur -33.4299 28.1395 -25.2453
ltibia 61.5618
lfoot 30.8754 42.1555
ltoes 25.548
7
root 0.48925 16.4552 33.7961 -152.822 0.211589 -175.669
lowerback -18.2347 1.38507 3.63808
upperback -10.7298 3.52261 1.36808
thorax -1.26418 2.61977 -0.0425113
lowerneck -13.7951 0.66897 -1.84943
upperneck 35.1957 -2.2023 1.11105
head 14.4251 -2.21916 0.124321
rclavicle 4.14963e-015 6.55989e-015
rhumerus -46.692 5.20667 -82.6504
rradius 16.132
rwrist -1.97081
rhand 22.0342 6.60338
rfingers 7.12502
rthumb 46.4252 -16.312
lclavicle 4.14963e-015 6.55989e-015
lhumerus -52.555 6.42555 69.5951
lradius 19.35
lwrist 0.765005
lhand 27.8684 21.6616
lfingers 7.12502
lthumb 51.7807 41.8966
rfemur -43.8811 2.99537 36.6174
rtibia 43.2697
rfoot -44.6112 -28.9023
rtoes 37.429
lfemur -33.382 28.1804 -25.2687
ltibia 61.4634
lfoot 30.7803 42.285
ltoes 25.7385
8
root 0.484355 16.4514 33.7907 -152.834 0.0839764 -175.67
lowerback -18.1196 1.41608 3.78454
upperback -10.814 3.57012 1.30386
thorax -1.40475 2.64032 -0.194888
lowerneck -13.6214 0.698915 -1.84148
upperneck 35.2755 -2.23363 1.18689
head 14.424 -2.23654 0.14669
rclavicle 1.87727e-014 1.80894e-014
rhumerus -46.8211 5.12184 -82.6658
rradius 16.1457
rwrist -1.96816
rhand 22.1506 6.56859
rfingers 7.12502
rthumb 46.533 -16.3007
lclavicle 1.87727e-014 1.80894e-014
lhumerus -52.6995 6.00287 69.8335
lradius 19.5386
lwrist 1.20649
lhand 27.814 21.7261
lfingers 7.12502
lthumb 51.7313 41.99
rfemur -43.8655 2.79568 36.668
rtibia 43.2566
rfoot -44.8297 -29.2216
rtoes 36.8391
lfemur -33.3333 28.1207 -25.2441
ltibia 61.4123
lfoot 32.1249 41.2638
ltoes 24.0069
9
root 0.478723 16.4532 33.7763 -153.022 -0.167746 -175.772
lowerback -17.9517 1.40201 3.85743
upperback -10.8346 3.54709 1.21886
thorax -1.50517 2.61896 -0.339521
lowerneck -13.404 0.677135 -1.79148
upperneck 35.2737 -2.31832 1.20167
head 14.3753 -2.27496 0.130699
rclavicle -1.41758e-014 -8.15017e-015
rhumerus -47.0021 5.02491 -82.7043
rradius 16.1176
rwrist -1.90514
rhand 21.8987 7.01444
rfingers 7.12502
rthumb 46.2996 -15.9543
lclavicle -1.41758e-014 -8.15017e-015
lhumerus -52.7767 5.61478 70.0143
lradius 19.6386
lwrist 1.53307
lhand 27.8071 21.6906
lfingers 7.12502
lthumb 51.725 41.9582
rfemur -43.7089 2.18011 36.8102
rtibia 43.3125
rfoot -44.0815 -29.3389
rtoes 35.4424
lfemur -32.9418 27.9434 -25.1224
ltibia 61.274
lfoot 32.2265 41.0901
ltoes 23.9618
10
root 0.4776 16.447 33.7691 -153.275 -0.273358 -175.831
lowerback -17.656 1.41979 3.87636
upperback -10.8657 3.57357 1.13956
thorax -1.68306 2.6205 -0.447524
lowerneck -13.1517 0.632139 -1.67844
upperneck 35.3235 -2.46471 1.17181
head 14.3425 -2.34502 0.0738632
rclavicle -6.58474e-015 -8.54774e-015
rhumerus -47.2208 4.92882 -82.7682
rradius 16.0918
rwrist -1.92824
rhand 21.616 7.4817
rfingers 7.12502
rthumb 46.0375 -15.5972
lclavicle -6.58474e-015 -8.54774e-015
lhumerus -52.8777 5.20033 70.1947
lradius 19.6927
lwrist 1.8038
lhand 27.7341 21.7097
lfingers 7.12502
lthumb 51.6587 42.0159
rfemur -43.3335 2.35901 36.6226
rtibia 43.2414
rfoot -44.9814 -28.5452
rtoes 35.9069
lfemur -32.5642 27.8544 -24.9974
ltibia 61.2325
lfoot 31.5646 41.508
ltoes 24.6555
11
root 0.471146 16.4526 33.7491 -153.412 -0.567775 -175.572
lowerback -17.8473 1.48063 4.30675
upperback -10.6759 3.542 1.19549
thorax -1.36899 2.57857 -0.614022
lowerneck -13.1618 0.594555 -1.67662
upperneck 35.2579 -2.49905 1.16725
head 14.3153 -2.35229 0.0687541
rclavicle -2.36181e-014 7.7526e-015
rhumerus -47.0698 4.83664 -82.6844
rradius 16.1103
rwrist -1.87478
rhand 21.4888 7.77317
rfingers 7.12502
rthumb 45.9194 -15.3548
lclavicle -2.36181e-014 7.7526e-015
lhumerus -52.7066 5.10086 70.376
lradius 19.748
lwrist 1.9747
lhand 27.6061 21.7447
lfingers 7.12502
lthumb 51.5424 42.1182
rfemur -43.1213 1.7445 37.1199
rtibia 43.2412
rfoot -44.6101 -28.6217
rtoes 36.0961
lfemur -32.2897 27.7322 -24.5308
ltibia 61.1821
lfoot 31.494 41.5311
ltoes 24.2889
12
root 0.467946 16.4404 33.7453 -153.461 -0.576293 -175.52
lowerback -17.9054 1.54667 4.41736
upperback -10.6017 3.59084 1.1879
thorax -1.2523 2.59336 -0.668522
lowerneck -13.0262 0.578613 -1.74809
upperneck 35.2139 -2.53836 1.24331
head 14.267 -2.37124 0.10799
rclavicle 7.83957e-015 4.96962e-015
rhumerus -47.0575 4.6946 -82.5304
rradius 16.2602
rwrist -1.81576
rhand 21.6623 7.6753
rfingers 7.12502
rthumb 46.0804 -15.3857
lclavicle 7.83957e-015 4.96962e-015
lhumerus -52.576 5.32399 70.1596
lradius 19.5784
lwrist 1.6935
lhand 27.6961 21.4553
lfingers 7.12502
lthumb 51.6242 41.7815
rfemur -42.9961 1.81 37.1057
rtibia 43.1342
rfoot -45.0577 -28.6298
rtoes 36.8662
lfemur -32.2587 27.6845 -24.4656
ltibia 61.2701
lfoot 31.1789 41.6461
ltoes 24.2738
13
root 0.467799 16.4466 33.7451 -153.282 -0.529019 -175.414
lowerback -17.9538 1.62475 4.54096
upperback -10.7153 3.71624 1.16895
thorax -1.34216 2.66412 -0.739405
lowerneck -12.7434 0.568657 -1.78109
upperneck 35.2337 -2.6127 1.29472
head 14.2148 -2.41768 0.123044
rclavicle -1.30949e-014 -1.86858e-014
rhumerus -47.2912 4.72482 -82.5863
rradius 16.4578
rwrist -1.99814
rhand 21.8846 7.32951
rfingers 7.12502
rthumb 46.2865 -15.6447
lclavicle -1.30949e-014 -1.86858e-014
lhumerus -52.651 5.39606 69.9403
lradius 19.5059
lwrist 1.45841
lhand 27.7902 21.3645
lfingers 7.12502
lthumb 51.7097 41.641
rfemur -43.2031 1.75781 37.2846
rtibia 43.1655
rfoot -44.4218 -28.5169
rtoes 36.002
lfemur -32.5099 27.6965 -24.491
ltibia 61.2881
lfoot 30.9734 41.7062
ltoes 24.504
14
root 0.473597 16.4352 33.7547 -153.085 -0.382806 -175.357
lowerback -17.9466 1.67191 4.46692
upperback -10.8225 3.82491 1.17872
thorax -1.46231 2.73282 -0.675645
lowerneck -12.6239 0.561921 -1.70368
upperneck 35.2424 -2.63162 1.20392
head 14.1898 -2.43423 0.0698012
rclavicle 9.20621e-015 8.74653e-015
rhumerus -47.3282 4.80532 -82.6344
rradius 16.4738
rwrist -2.00903
rhand 22.0853 7.27068
rfingers 7.12502
rthumb 46.4725 -15.6245
lclavicle 9.20621e-015 8.74653e-015
lhumerus -52.7202 5.33319 69.949
lradius 19.5948
lwrist 1.45963
lhand 27.8583 21.5769
lfingers 7.12502
lthumb 51.7715 41.8173
rfemur -43.4133 2.19053 37.2305
rtibia 43.0764
rfoot -44.4108 -29.6362
rtoes 34.3616
lfemur -32.8857 27.7977 -24.6006
ltibia 61.4011
lfoot 30.6147 41.9444
ltoes 25.1423
15
root 0.473387 16.4439 33.744 -153.124 -0.279263 -175.304
lowerback -17.941 1.76158 4.52101
upperback -10.7755 3.91841 1.14922
thorax -1.40561 2.77078 -0.718778
lowerneck -12.6455 0.556509 -1.59426
upperneck 35.2666 -2.63856 1.11202
head 14.2032 -2.43427 0.0116654
rclavicle -1.06847e-015 2.78299e-015
rhumerus -47.2455 4.83362 -82.7051
rradius 16.3526
rwrist -1.99986
rhand 21.9445 7.48795
rfingers 7.12502
rthumb 46.342 -15.4628
lclavicle -1.06847e-015 2.78299e-015
lhumerus -52.6426 5.65203 69.5692
lradius 19.4571
lwrist 1.02618
lhand 28.0844 21.5519
lfingers 7.12502
lthumb 51.9767 41.6714
rfemur -43.3081 2.1378 37.2911
rtibia 43.1119
rfoot -44.3151 -28.7171
rtoes 34.9493
lfemur -32.7627 27.9111 -24.5614
ltibia 61.3371
lfoot 30.4399 42.0669
ltoes 25.1551
